<mxfile host="Electron" agent="Mozilla/5.0 (Windows NT 10.0; Win64; x64) AppleWebKit/537.36 (KHTML, like Gecko) draw.io/26.0.16 Chrome/132.0.6834.196 Electron/34.2.0 Safari/537.36" version="26.0.16">
  <diagram name="Pàgina-1" id="p6YU9j7XiGreTcS4NfMX">
    <mxGraphModel dx="1927" dy="902" grid="1" gridSize="10" guides="1" tooltips="1" connect="1" arrows="1" fold="1" page="1" pageScale="1" pageWidth="827" pageHeight="1169" math="0" shadow="0">
      <root>
        <mxCell id="0" />
        <mxCell id="1" parent="0" />
        <mxCell id="WJtX_o1EyLTZeoSE7xiK-17" value="" style="rounded=0;whiteSpace=wrap;html=1;absoluteArcSize=0;" vertex="1" parent="1">
          <mxGeometry x="21" y="225" width="86" height="40" as="geometry" />
        </mxCell>
        <mxCell id="WJtX_o1EyLTZeoSE7xiK-1" value="&lt;h1 style=&quot;margin-top: 0px;&quot;&gt;&lt;span style=&quot;font-size: 12px;&quot;&gt;Exercici 3:&lt;/span&gt;&lt;/h1&gt;&lt;p&gt;Una empresa gestiona diferents pàrquings públics de Catalunya. Volem tenir enregistrats els pàrquings i les&amp;nbsp;&lt;span style=&quot;background-color: transparent; color: light-dark(rgb(0, 0, 0), rgb(255, 255, 255));&quot;&gt;seves corresponents places. Mostra el diagrama ER.&lt;/span&gt;&lt;/p&gt;" style="text;html=1;whiteSpace=wrap;overflow=hidden;rounded=0;" vertex="1" parent="1">
          <mxGeometry x="-130" y="30" width="1000" height="80" as="geometry" />
        </mxCell>
        <mxCell id="WJtX_o1EyLTZeoSE7xiK-8" style="edgeStyle=orthogonalEdgeStyle;rounded=0;orthogonalLoop=1;jettySize=auto;html=1;endArrow=none;startFill=0;" edge="1" parent="1" source="WJtX_o1EyLTZeoSE7xiK-2" target="WJtX_o1EyLTZeoSE7xiK-7">
          <mxGeometry relative="1" as="geometry" />
        </mxCell>
        <mxCell id="WJtX_o1EyLTZeoSE7xiK-10" value="1:N" style="edgeLabel;html=1;align=center;verticalAlign=middle;resizable=0;points=[];" vertex="1" connectable="0" parent="WJtX_o1EyLTZeoSE7xiK-8">
          <mxGeometry x="-0.2308" y="3" relative="1" as="geometry">
            <mxPoint x="10" y="-12" as="offset" />
          </mxGeometry>
        </mxCell>
        <mxCell id="WJtX_o1EyLTZeoSE7xiK-2" value="PLAZA" style="rounded=0;whiteSpace=wrap;html=1;" vertex="1" parent="1">
          <mxGeometry x="30" y="230" width="70" height="30" as="geometry" />
        </mxCell>
        <mxCell id="WJtX_o1EyLTZeoSE7xiK-14" style="edgeStyle=orthogonalEdgeStyle;rounded=0;orthogonalLoop=1;jettySize=auto;html=1;endArrow=none;startFill=0;" edge="1" parent="1" source="WJtX_o1EyLTZeoSE7xiK-3" target="WJtX_o1EyLTZeoSE7xiK-2">
          <mxGeometry relative="1" as="geometry" />
        </mxCell>
        <mxCell id="WJtX_o1EyLTZeoSE7xiK-3" value="Numero" style="ellipse;whiteSpace=wrap;html=1;fontStyle=4" vertex="1" parent="1">
          <mxGeometry x="23" y="120" width="84" height="40" as="geometry" />
        </mxCell>
        <mxCell id="WJtX_o1EyLTZeoSE7xiK-9" style="edgeStyle=orthogonalEdgeStyle;rounded=0;orthogonalLoop=1;jettySize=auto;html=1;endArrow=none;startFill=0;" edge="1" parent="1" source="WJtX_o1EyLTZeoSE7xiK-5" target="WJtX_o1EyLTZeoSE7xiK-7">
          <mxGeometry relative="1" as="geometry" />
        </mxCell>
        <mxCell id="WJtX_o1EyLTZeoSE7xiK-13" value="1:1" style="edgeLabel;html=1;align=center;verticalAlign=middle;resizable=0;points=[];" vertex="1" connectable="0" parent="WJtX_o1EyLTZeoSE7xiK-9">
          <mxGeometry x="0.0667" y="-1" relative="1" as="geometry">
            <mxPoint y="-14" as="offset" />
          </mxGeometry>
        </mxCell>
        <mxCell id="WJtX_o1EyLTZeoSE7xiK-5" value="PARQUING" style="rounded=0;whiteSpace=wrap;html=1;" vertex="1" parent="1">
          <mxGeometry x="520" y="225" width="80" height="40" as="geometry" />
        </mxCell>
        <mxCell id="WJtX_o1EyLTZeoSE7xiK-15" style="edgeStyle=orthogonalEdgeStyle;rounded=0;orthogonalLoop=1;jettySize=auto;html=1;endArrow=none;startFill=0;" edge="1" parent="1" source="WJtX_o1EyLTZeoSE7xiK-6" target="WJtX_o1EyLTZeoSE7xiK-5">
          <mxGeometry relative="1" as="geometry" />
        </mxCell>
        <mxCell id="WJtX_o1EyLTZeoSE7xiK-6" value="direccion" style="ellipse;whiteSpace=wrap;html=1;fontStyle=4" vertex="1" parent="1">
          <mxGeometry x="520" y="120" width="80" height="40" as="geometry" />
        </mxCell>
        <mxCell id="WJtX_o1EyLTZeoSE7xiK-7" value="ASIGNACION" style="rhombus;whiteSpace=wrap;html=1;" vertex="1" parent="1">
          <mxGeometry x="230" y="210" width="170" height="70" as="geometry" />
        </mxCell>
        <mxCell id="WJtX_o1EyLTZeoSE7xiK-16" value="PLAZA (numero, direccion...)&lt;div&gt;on (direccion) referencia a PARQUING&lt;/div&gt;&lt;div&gt;PARQUING (direccion)&lt;/div&gt;" style="text;html=1;align=left;verticalAlign=middle;whiteSpace=wrap;rounded=0;" vertex="1" parent="1">
          <mxGeometry x="-20" y="280" width="520" height="30" as="geometry" />
        </mxCell>
        <mxCell id="WJtX_o1EyLTZeoSE7xiK-19" value="" style="endArrow=none;html=1;rounded=0;exitX=1;exitY=0.75;exitDx=0;exitDy=0;entryX=0.135;entryY=0.603;entryDx=0;entryDy=0;entryPerimeter=0;" edge="1" parent="1" source="WJtX_o1EyLTZeoSE7xiK-2" target="WJtX_o1EyLTZeoSE7xiK-7">
          <mxGeometry width="50" height="50" relative="1" as="geometry">
            <mxPoint x="350" y="360" as="sourcePoint" />
            <mxPoint x="400" y="310" as="targetPoint" />
          </mxGeometry>
        </mxCell>
        <mxCell id="WJtX_o1EyLTZeoSE7xiK-20" value="" style="endArrow=none;html=1;rounded=0;exitX=0.855;exitY=0.649;exitDx=0;exitDy=0;exitPerimeter=0;entryX=0;entryY=0.75;entryDx=0;entryDy=0;" edge="1" parent="1" source="WJtX_o1EyLTZeoSE7xiK-7" target="WJtX_o1EyLTZeoSE7xiK-5">
          <mxGeometry width="50" height="50" relative="1" as="geometry">
            <mxPoint x="350" y="360" as="sourcePoint" />
            <mxPoint x="400" y="310" as="targetPoint" />
          </mxGeometry>
        </mxCell>
        <mxCell id="WJtX_o1EyLTZeoSE7xiK-21" value="&lt;h1 style=&quot;margin-top: 0px;&quot;&gt;&lt;font style=&quot;font-size: 12px; font-weight: normal;&quot;&gt;Exercici 4:&lt;/font&gt;&lt;/h1&gt;&lt;h1 style=&quot;margin-top: 0px;&quot;&gt;&lt;font style=&quot;font-size: 12px; font-weight: normal;&quot;&gt;Un magatzem de peces de recanvi per a turismes gestiona el magatzem segons el vehicle que utilitza un&amp;nbsp;&lt;/font&gt;&lt;span style=&quot;font-size: 12px; font-weight: normal; background-color: transparent; color: light-dark(rgb(0, 0, 0), rgb(255, 255, 255));&quot;&gt;determinat recanvi. Hi ha peces que es poden utilitzar per diferents models de vehicles. Mostra el diagrama ER.&lt;/span&gt;&lt;/h1&gt;" style="text;html=1;whiteSpace=wrap;overflow=hidden;rounded=0;spacing=0;spacingTop=0;spacingBottom=0;" vertex="1" parent="1">
          <mxGeometry x="-130" y="320" width="870" height="120" as="geometry" />
        </mxCell>
        <mxCell id="WJtX_o1EyLTZeoSE7xiK-22" value="VEHICULO" style="rounded=0;whiteSpace=wrap;html=1;" vertex="1" parent="1">
          <mxGeometry x="-19" y="540" width="90" height="30" as="geometry" />
        </mxCell>
        <mxCell id="WJtX_o1EyLTZeoSE7xiK-23" value="RECAMBIO" style="rounded=0;whiteSpace=wrap;html=1;" vertex="1" parent="1">
          <mxGeometry x="551" y="540" width="90" height="30" as="geometry" />
        </mxCell>
        <mxCell id="WJtX_o1EyLTZeoSE7xiK-24" value="ASIGNACION" style="rhombus;whiteSpace=wrap;html=1;" vertex="1" parent="1">
          <mxGeometry x="241" y="527.5" width="150" height="55" as="geometry" />
        </mxCell>
        <mxCell id="WJtX_o1EyLTZeoSE7xiK-26" value="" style="endArrow=none;html=1;rounded=0;" edge="1" parent="1" source="WJtX_o1EyLTZeoSE7xiK-22" target="WJtX_o1EyLTZeoSE7xiK-24">
          <mxGeometry width="50" height="50" relative="1" as="geometry">
            <mxPoint x="351" y="490" as="sourcePoint" />
            <mxPoint x="401" y="440" as="targetPoint" />
          </mxGeometry>
        </mxCell>
        <mxCell id="WJtX_o1EyLTZeoSE7xiK-32" value="1:N" style="edgeLabel;html=1;align=center;verticalAlign=middle;resizable=0;points=[];" vertex="1" connectable="0" parent="WJtX_o1EyLTZeoSE7xiK-26">
          <mxGeometry x="-0.1647" y="3" relative="1" as="geometry">
            <mxPoint y="-12" as="offset" />
          </mxGeometry>
        </mxCell>
        <mxCell id="WJtX_o1EyLTZeoSE7xiK-27" value="" style="endArrow=none;html=1;rounded=0;" edge="1" parent="1" source="WJtX_o1EyLTZeoSE7xiK-24" target="WJtX_o1EyLTZeoSE7xiK-23">
          <mxGeometry width="50" height="50" relative="1" as="geometry">
            <mxPoint x="351" y="490" as="sourcePoint" />
            <mxPoint x="401" y="440" as="targetPoint" />
          </mxGeometry>
        </mxCell>
        <mxCell id="WJtX_o1EyLTZeoSE7xiK-33" value="1:1" style="edgeLabel;html=1;align=center;verticalAlign=middle;resizable=0;points=[];" vertex="1" connectable="0" parent="WJtX_o1EyLTZeoSE7xiK-27">
          <mxGeometry x="-0.0625" y="3" relative="1" as="geometry">
            <mxPoint y="-12" as="offset" />
          </mxGeometry>
        </mxCell>
        <mxCell id="WJtX_o1EyLTZeoSE7xiK-28" value="Modelo" style="ellipse;whiteSpace=wrap;html=1;" vertex="1" parent="1">
          <mxGeometry x="266" y="600" width="100" height="40" as="geometry" />
        </mxCell>
        <mxCell id="WJtX_o1EyLTZeoSE7xiK-29" value="&lt;u&gt;Matricula&lt;/u&gt;" style="ellipse;whiteSpace=wrap;html=1;" vertex="1" parent="1">
          <mxGeometry x="-29" y="440" width="110" height="40" as="geometry" />
        </mxCell>
        <mxCell id="WJtX_o1EyLTZeoSE7xiK-30" value="" style="endArrow=none;html=1;rounded=0;" edge="1" parent="1" source="WJtX_o1EyLTZeoSE7xiK-28" target="WJtX_o1EyLTZeoSE7xiK-24">
          <mxGeometry width="50" height="50" relative="1" as="geometry">
            <mxPoint x="351" y="490" as="sourcePoint" />
            <mxPoint x="401" y="440" as="targetPoint" />
          </mxGeometry>
        </mxCell>
        <mxCell id="WJtX_o1EyLTZeoSE7xiK-31" value="" style="endArrow=none;html=1;rounded=0;" edge="1" parent="1" source="WJtX_o1EyLTZeoSE7xiK-29" target="WJtX_o1EyLTZeoSE7xiK-22">
          <mxGeometry width="50" height="50" relative="1" as="geometry">
            <mxPoint x="351" y="490" as="sourcePoint" />
            <mxPoint x="401" y="440" as="targetPoint" />
          </mxGeometry>
        </mxCell>
        <mxCell id="WJtX_o1EyLTZeoSE7xiK-34" value="&lt;u&gt;id_pieza&lt;/u&gt;" style="ellipse;whiteSpace=wrap;html=1;" vertex="1" parent="1">
          <mxGeometry x="546" y="430" width="100" height="30" as="geometry" />
        </mxCell>
        <mxCell id="WJtX_o1EyLTZeoSE7xiK-35" value="" style="endArrow=none;html=1;rounded=0;" edge="1" parent="1" source="WJtX_o1EyLTZeoSE7xiK-23" target="WJtX_o1EyLTZeoSE7xiK-34">
          <mxGeometry width="50" height="50" relative="1" as="geometry">
            <mxPoint x="351" y="490" as="sourcePoint" />
            <mxPoint x="401" y="440" as="targetPoint" />
          </mxGeometry>
        </mxCell>
        <mxCell id="WJtX_o1EyLTZeoSE7xiK-36" value="VEHICULO (matricula,...)&lt;div&gt;RECAMBIO (id_pieza,...)&lt;/div&gt;&lt;div&gt;ASIGNACION (id_pieza, matricula, modelo,...)&lt;/div&gt;&lt;div&gt;on {id_pieza} referencia RECAMBIO&lt;/div&gt;&lt;div&gt;on {matricula} referencia VEHICULO&lt;/div&gt;" style="text;html=1;align=left;verticalAlign=middle;whiteSpace=wrap;rounded=0;" vertex="1" parent="1">
          <mxGeometry x="-36" y="620" width="297" height="80" as="geometry" />
        </mxCell>
        <mxCell id="WJtX_o1EyLTZeoSE7xiK-37" value="&lt;h1 style=&quot;margin-top: 0px;&quot;&gt;&lt;span style=&quot;font-size: 12px; font-weight: 400;&quot;&gt;Exercici 5:&lt;/span&gt;&lt;/h1&gt;&lt;p&gt;&lt;span style=&quot;background-color: transparent; color: light-dark(rgb(0, 0, 0), rgb(255, 255, 255));&quot;&gt;Una base de dades emmagatzema les poblacions que hi ha a un estat i els codis postals que tenen aquestes&amp;nbsp;&lt;/span&gt;&lt;span style=&quot;background-color: transparent; color: light-dark(rgb(0, 0, 0), rgb(255, 255, 255));&quot;&gt;poblacions. Mostra el diagrama ER.&lt;/span&gt;&lt;/p&gt;" style="text;html=1;whiteSpace=wrap;overflow=hidden;rounded=0;" vertex="1" parent="1">
          <mxGeometry x="-110" y="700" width="820" height="70" as="geometry" />
        </mxCell>
        <mxCell id="WJtX_o1EyLTZeoSE7xiK-40" value="POBLACION" style="rounded=0;whiteSpace=wrap;html=1;" vertex="1" parent="1">
          <mxGeometry x="105" y="880" width="93" height="30" as="geometry" />
        </mxCell>
        <mxCell id="WJtX_o1EyLTZeoSE7xiK-41" value="ESTAT" style="rounded=0;whiteSpace=wrap;html=1;" vertex="1" parent="1">
          <mxGeometry x="450" y="880" width="80" height="30" as="geometry" />
        </mxCell>
        <mxCell id="WJtX_o1EyLTZeoSE7xiK-42" value="PROCEDENCIA" style="rhombus;whiteSpace=wrap;html=1;" vertex="1" parent="1">
          <mxGeometry x="255" y="870" width="130" height="50" as="geometry" />
        </mxCell>
        <mxCell id="WJtX_o1EyLTZeoSE7xiK-43" value="" style="endArrow=none;html=1;rounded=0;" edge="1" parent="1" source="WJtX_o1EyLTZeoSE7xiK-40" target="WJtX_o1EyLTZeoSE7xiK-42">
          <mxGeometry width="50" height="50" relative="1" as="geometry">
            <mxPoint x="390" y="680" as="sourcePoint" />
            <mxPoint x="440" y="630" as="targetPoint" />
          </mxGeometry>
        </mxCell>
        <mxCell id="WJtX_o1EyLTZeoSE7xiK-51" value="1:N" style="edgeLabel;html=1;align=center;verticalAlign=middle;resizable=0;points=[];" vertex="1" connectable="0" parent="WJtX_o1EyLTZeoSE7xiK-43">
          <mxGeometry x="-0.0526" y="-3" relative="1" as="geometry">
            <mxPoint y="-18" as="offset" />
          </mxGeometry>
        </mxCell>
        <mxCell id="WJtX_o1EyLTZeoSE7xiK-44" value="" style="endArrow=none;html=1;rounded=0;" edge="1" parent="1" source="WJtX_o1EyLTZeoSE7xiK-42">
          <mxGeometry width="50" height="50" relative="1" as="geometry">
            <mxPoint x="390" y="680" as="sourcePoint" />
            <mxPoint x="450" y="895" as="targetPoint" />
          </mxGeometry>
        </mxCell>
        <mxCell id="WJtX_o1EyLTZeoSE7xiK-52" value="1:1" style="edgeLabel;html=1;align=center;verticalAlign=middle;resizable=0;points=[];" vertex="1" connectable="0" parent="WJtX_o1EyLTZeoSE7xiK-44">
          <mxGeometry x="-0.0154" y="-3" relative="1" as="geometry">
            <mxPoint x="-3" y="-18" as="offset" />
          </mxGeometry>
        </mxCell>
        <mxCell id="WJtX_o1EyLTZeoSE7xiK-47" style="edgeStyle=orthogonalEdgeStyle;rounded=0;orthogonalLoop=1;jettySize=auto;html=1;" edge="1" parent="1" source="WJtX_o1EyLTZeoSE7xiK-45" target="WJtX_o1EyLTZeoSE7xiK-40">
          <mxGeometry relative="1" as="geometry" />
        </mxCell>
        <mxCell id="WJtX_o1EyLTZeoSE7xiK-45" value="Codigo_postal" style="ellipse;whiteSpace=wrap;html=1;fontStyle=4" vertex="1" parent="1">
          <mxGeometry x="101.5" y="780" width="100" height="40" as="geometry" />
        </mxCell>
        <mxCell id="WJtX_o1EyLTZeoSE7xiK-48" style="edgeStyle=orthogonalEdgeStyle;rounded=0;orthogonalLoop=1;jettySize=auto;html=1;" edge="1" parent="1">
          <mxGeometry relative="1" as="geometry">
            <mxPoint x="470" y="830" as="sourcePoint" />
            <mxPoint x="490" y="880" as="targetPoint" />
          </mxGeometry>
        </mxCell>
        <mxCell id="WJtX_o1EyLTZeoSE7xiK-46" value="nombre_estado" style="ellipse;whiteSpace=wrap;html=1;fontStyle=4" vertex="1" parent="1">
          <mxGeometry x="430" y="820" width="100" height="40" as="geometry" />
        </mxCell>
        <mxCell id="WJtX_o1EyLTZeoSE7xiK-49" value="nombre_poblacion" style="ellipse;whiteSpace=wrap;html=1;fontStyle=4" vertex="1" parent="1">
          <mxGeometry x="-50" y="875" width="120" height="40" as="geometry" />
        </mxCell>
        <mxCell id="WJtX_o1EyLTZeoSE7xiK-50" value="" style="endArrow=none;html=1;rounded=0;" edge="1" parent="1" source="WJtX_o1EyLTZeoSE7xiK-49" target="WJtX_o1EyLTZeoSE7xiK-40">
          <mxGeometry width="50" height="50" relative="1" as="geometry">
            <mxPoint x="390" y="680" as="sourcePoint" />
            <mxPoint x="440" y="630" as="targetPoint" />
          </mxGeometry>
        </mxCell>
        <mxCell id="WJtX_o1EyLTZeoSE7xiK-53" value="POBLACION (nombre_poblacion, codigo_postal, nombre_estado)&lt;div&gt;on {nombre_estado} referencia ESTAT&lt;/div&gt;&lt;div&gt;ESTAT (nombre_estado)&lt;/div&gt;" style="text;html=1;align=left;verticalAlign=middle;whiteSpace=wrap;rounded=0;" vertex="1" parent="1">
          <mxGeometry x="-110" y="940" width="355" height="50" as="geometry" />
        </mxCell>
      </root>
    </mxGraphModel>
  </diagram>
</mxfile>
